<?xml version="1.0" encoding="utf-8"?>
<!-- Generator: Adobe Illustrator 26.3.1, SVG Export Plug-In . SVG Version: 6.00 Build 0)  -->
<svg version="1.1" id="Слой_1" xmlns="http://www.w3.org/2000/svg" xmlns:xlink="http://www.w3.org/1999/xlink" x="0px" y="0px"
	 viewBox="0 0 1987 2188.4472656" style="enable-background:new 0 0 1987 2188.4472656;" xml:space="preserve">
<style type="text/css">
	.st0{fill:#011667;}
	.st1{fill:#FFFFFF;}
	.st2{enable-background:new    ;}
	.st3{fill:#031B66;}
	.st4{fill:#65ADFE;}
</style>
<g id="Layer_1">
	<g>
		<circle class="st0" cx="993.5" cy="993.5" r="993.5"/>
	</g>
	<g>
		<circle class="st1" cx="993.5" cy="993.5" r="974"/>
	</g>
	<g>
		<circle class="st0" cx="996.5" cy="991.5" r="876"/>
	</g>
	<g id="Layer_4">
		<g>
			<path class="st1" d="M476.3861389,964.5c9.4632263,0,17.3253479-7.2362061,18.1768799-16.6610107
				C517.6291504,692.5447388,732.1986084,492.5000305,993.5,492.5000305s475.8708496,200.0447083,498.9370117,455.3389587
				c0.8515625,9.4248047,8.713623,16.6610107,18.1768799,16.6610107L1820.5,962.5c10.4887695,0,18.5952148-8.5281372,18-19
				c-3.9619141-69.7005005-26.0270996-163.8825684-46-228c-2.8813477-9.2496948-8.6011963-14.3496704-18-12l-89.0705566,16.0176392
				c-8.9855957,2.2463989-18.9442139-2.3526611-21.496582-11.2561646
				c-14.5931396-50.9053955-51.5020752-100.6873169-88.7662354-153.1176147
				c-5.3493652-7.5264893-1.666626-16.6438599,4.0561523-23.8738403l52.0025635-63.4416809
				c6.2746582-7.3283691,9.7194824-17.9057922,3.1195068-25.2515869C1561.5,361.4999695,1520.5,325.4999695,1429.5,268.4999695
				c-8.3531494-5.2321777-24,2-30,9l-52.9122314,61.0843811c-5.0998535,7.8091431-15.2993164,10.5819397-23.5754395,6.2810974
				c-64.3015137-33.4156189-110.7628174-48.5508423-167.9746094-62.0429382
				c-8.043457-1.8968811-13.5377197-9.3630371-13.5377197-17.6271362v-88.2277985
				c0-8.9975433-6.5594482-16.628479-15.4454346-18.0406952c-43.1751709-6.8615875-87.4483643-11.4268951-132.5545654-11.4268951
				c-48.7217407,0-87.4713745,2.1608887-133.9151611,10.1418457C850.8538208,159.1421814,844.5,166.761261,844.5,175.6202698
				v91.0007935c0,8.1257019-5.2669678,15.6604004-13.1747437,17.52948
				c-57.2087402,13.521759-114.4492798,30.6018066-172.7330322,62.8283691
				C650.2561035,351.5881653,637.3359985,352.7065735,632.5,344.5l-54.6849976-67.526062
				C571.5,269.5,561.2636719,265.1583862,552.7000732,270.5781555C467.5,324.5,413.5,372.5,346.5,448.5
				c-6.1114197,6.932373-4,18,2.0855713,25.2712708l53.3695374,64.0692444
				C408.0114136,543.9626465,413.6354675,554.5872192,408.5,561.5
				c-32.8728027,44.2497559-65.6524963,88.2662354-83.4873657,146.1242676
				c-2.7994995,9.0818481-12.7799683,13.8985596-21.9501953,11.4037476l-87.683197-14.1270752
				c-9.4396362-2.5681152-19.2155914,2.7640991-22.1955566,12.0819702
				C172.1083069,782.8820801,152.5865021,868.6307983,148.4999847,940.5c-0.5956879,10.4763794,15.5066833,25,26,25l301.8861084-1
				H476.3861389z"/>
		</g>
	</g>
	<g class="st2">
		<path class="st3" d="M709.7915039,348.6367188l41.5849609-15.0146484
			c13.1347656-4.7421875,23.4550781-7.3125,30.9599609-7.7099609c7.5039062-0.3984375,14.4609375,1.7685547,20.8701172,6.5
			c6.4091797,4.7333984,12.1132812,14.0244141,17.1152344,27.8769531
			c3.3828125,9.3671875,4.2705078,16.4277344,2.6679688,21.1835938c-1.6035156,4.7548828-6.3720703,9.6816406-14.3046875,14.7822266
			c10.4238281-1.2998047,18.2636719-0.0429688,23.5214844,3.7705078c5.2558594,3.8125,9.7695312,10.9375,13.5371094,21.3730469
			l5.3652344,14.8583984c3.9111328,10.8339844,5.5703125,19.3046875,4.9785156,25.4160156
			c-0.5908203,6.1113281-3.2480469,11.1015625-7.96875,14.9707031c-4.7216797,3.8691406-15.4658203,8.8320312-32.2314453,14.8847656
			L767.668457,508.9375L709.7915039,348.6367188z M761.378418,361.0126953l12.8691406,35.6445312
			c1.7587891-0.7080078,3.1328125-1.2431641,4.1230469-1.6005859c4.0917969-1.4775391,6.3359375-3.4238281,6.7314453-5.84375
			c0.3955078-2.4179688-1.1230469-8.3798828-4.5556641-17.8857422c-1.8105469-5.015625-3.5419922-8.3632812-5.1933594-10.0449219
			c-1.6513672-1.6777344-3.3134766-2.5136719-4.9902344-2.5058594
			C768.6870117,358.7851562,765.6918945,359.5302734,761.378418,361.0126953z M783.2563477,421.609375l16.1943359,44.8525391
			c5.8027344-2.3193359,9.2148438-4.5947266,10.2363281-6.8300781c1.0214844-2.2333984,0.3652344-6.5859375-1.9707031-13.0546875
			l-5.3984375-14.9511719c-2.4785156-6.8652344-4.7070312-10.7597656-6.6826172-11.6894531
			C793.6586914,419.0107422,789.5307617,419.5664062,783.2563477,421.609375z"/>
	</g>
	<g class="st2">
		<path class="st3" d="M1284.5722656,351.1630859l-11.8964844,31.9638672l-24.6640625-9.1787109l-47.5488281,127.7617188
			l-41.5351562-15.4589844l47.5488281-127.7617188l-24.5644531-9.1425781l11.8955078-31.9638672L1284.5722656,351.1630859z"/>
	</g>
	<g class="st2">
		<path class="st3" d="M1579.8320312,603.4316406l21.8720703,38.6650391l-62.5673828,35.6367188
			c4.2958984,7.1640625,10.4521484,8.640625,18.4707031,4.4277344l29.3671875-15.6455078
			c10.8261719-5.8037109,19.2099609-7.8037109,25.1474609-6.0029297l20.1630859,35.6425781
			c-5.5742188-1.4433594-13.9941406,1.0625-25.2587891,7.515625l-25.3681641,14.5927734
			c-15.3242188,8.8291016-28.9970703,5.1142578-41.015625-11.1455078
			c7.7421875,18.6787109,3.7617188,32.3808594-11.9433594,41.1035156l-23.7421875,13.1894531
			c-11.2744141,6.296875-18.3085938,12.5341797-21.1025391,18.7109375l-20.1630859-35.6425781
			c1.375-6.2617188,7.4091797-12.4140625,18.0996094-18.4619141l28.953125-16.3779297
			c3.6650391-2.0742188,5.9794922-4.8554688,6.9492188-8.3457031c0.9677734-3.4921875,0.4804688-7.0263672-1.4628906-10.6035156
			l-62.9570312,35.3730469l-21.8730469-38.6650391L1579.8320312,603.4316406z"/>
	</g>
	<g>
		<circle class="st0" cx="378.5" cy="873.5" r="33.9411469"/>
	</g>
	<g>
		<circle class="st0" cx="1608.5" cy="868.833313" r="33.9411316"/>
	</g>
	<g>
		<path class="st4" d="M991.5515137,525.5c0,0-336.3685303,361.00177-326.6965942,509.2025146
			c-9.671936,134.9006348,145.7876587,285.0679932,318.0993042,288.8013916
			c172.5717773,3.7391357,336.3685303-133.0006104,334.2192383-278.3513184
			C1317.1734619,891.2518311,991.5515137,525.5,991.5515137,525.5z"/>
	</g>
	<g>
		<path class="st1" d="M1521.9610596,1234.4633789c-2.7580566-4.2036133-9.3371582-6.0333252-17.2211914-6.3395996
			c3.2414551-9.689209,6.8468018-24.1503906,2.1818848-30.53125c-5.6595459-7.7409668-15.7647705-7.9365234-23.8859863-8.0936279
			c-20.0671387-0.3881836-36.5131836,10.8118896-45.2242432,17.661377
			c-2.5565186-0.5866699-4.9005127-1.0754395-6.9709473-1.4742432c-7.6553955-1.473999-11.5718994-2.2027588-15.9239502-1.798584
			c-7.723999,0.7174072-13.3609619,3.8387451-17.6932373,6.2950439
			c-8.2398682,4.671875-13.4816895,10.0645752-15.0393066,11.6907959c-0.9604492,1.0026855-1.895752,1.9875488-2.8383789,2.9775391
			c-5.8886719-1.5488281-12.2001953,0.2810059-19.2781982,0.6196289
			c-11.0673828,0.5294189-16.0638428,3.7536621-18.0673828,4.5294189
			c-20.8300781,8.0657959-68.6221924,73.0718994-113.7227783,137.3391113
			c-86.2796631,10.5611572-72.125,27.6477051-194.2087402,24.9498291
			c-97.1591797-2.1470947-112.0778809-39.7429199-247.2637939-35.5219727
			c-42.6714478,1.3323975-91.5449829,3.8204346-141.5463867,32.3745117
			c-20.3084717,11.5974121-44.2073364,29.9141846-92.005127,66.5474854
			c-21.2589111,16.293335-38.6147461,30.0789795-50.4259033,39.5688477
			c-4.1882324-2.3686523-15.7975159-8.1837158-30.9632568-6.2950439
			c-21.4837341,2.6755371-37.4074402,18.7093506-35.3865967,21.5830078
			c102.6417847,145.9560547,186.0148926,266.9744873,215.8581543,256.2978516
			c7.4121704-2.6517334,34.2006836-35.0887451,50.4259033-70.1446533c5.2305908-11.3011475,4.96698-23.0058594,5.3079834-32.3745117
			c21.1139526-15.1547852,52.5164795-31.9868164,92.005127-32.3745117c2.7015991-0.0266113,6.1796875,0.0167236,19.4626465,0.899292
			c50.9864502,3.3879395,91.4047852,8.8421631,99.0824585,9.8922119
			c52.9973755,7.2478027,107.1176147,7.6346436,159.2396851,19.7844238c12.1589355,2.8342285,34.3890381,8.4306641,59.272583,0
			c20.9820557-7.1087646,33.8417969-20.7999268,38.925293-26.0794678
			c62.3640137-64.7675781,121.0888672-75.2115479,214.9735107-187.9517822
			c67.5097656-81.0683594,41.0750732-80.387085,107.9290771-164.5701904
			c8.3240967-10.4818115,30.5474854-37.960083,23.0012207-49.4609375H1521.9610596z"/>
		<path class="st0" d="M648.2963867,1774.0273438c-16.4331055,0.0019531-39.5737305-20.2255859-76.9008789-66.5712891
			c-35.184082-43.6845703-77.8100586-104.3427734-127.1669922-174.5800781l-13.0678711-18.5908203
			c-0.9443359-1.34375-2.2631836-4.1962891-0.4824219-8.2158203c3.6269531-8.1884766,20.7446289-21.1103516,40.3828125-23.5566406
			c13.1083984-1.6337891,24.0498047,1.8154297,30.9819336,5.0410156
			c15.4970703-12.4121094,31.3779297-24.8544922,47.2563477-37.0244141
			c47.9838867-36.7753906,72.0507812-55.2207031,92.7358398-67.0322266
			c53.1845703-30.3730469,106.0014648-32.0224609,144.5664062-33.2275391
			c77.2441406-2.4111328,115.3803711,8.5458984,152.2631836,19.1425781
			c27.6733398,7.9511719,53.8120117,15.4609375,95.347168,16.3789062
			c75.6933594,1.6650391,97.7119141-4.1757812,125.5732422-11.5810547
			c15.9765625-4.2451172,34.0205078-9.0410156,64.828125-12.9638672
			c63.5927734-90.4863281,96.9746094-130.3125,115.0400391-137.3076172
			c0.2089844-0.0830078,0.4638672-0.2089844,0.7744141-0.3544922c2.8330078-1.3310547,8.7294922-4.0986328,19.3291016-4.6054688
			c2.0488281-0.0986328,4.1357422-0.3486328,6.1533203-0.5908203c3.6142578-0.4326172,7.3203125-0.8798828,11.1113281-0.5195312
			l0.4667969-0.4892578c6.0371094-6.2988281,12.3203125-10.4648438,16.5292969-12.8505859
			c4.3916016-2.4902344,11.0283203-6.2529297,20.2988281-7.1132812c5.3632812-0.4970703,10.0253906,0.4003906,17.7529297,1.8876953
			c1.3789062,0.265625,2.78125,0.5517578,4.1943359,0.8554688c15.6660156-11.6875,31.4257812-17.4208984,46.8984375-17.1582031
			c8.5410156,0.1660156,21.4462891,0.4150391,29.0068359,10.7568359c4.2773438,5.8505859,4.6289062,15.3144531,1.0380859,28.8066406
			c6.6923828,1.3691406,11.4482422,4.1591797,14.1884766,8.3330078l0,0
			c8.7529297,13.3388672-5.7734375,34.9667969-22.7744141,56.3515625l-0.5712891,0.71875
			c-32.2958984,40.6669922-42.4873047,61.1738281-52.3427734,81.0058594
			c-10.6591797,21.4482422-20.7265625,41.7070312-55.6806641,83.6806641
			c-56.8310547,68.2441406-101.3066406,99.6523438-140.546875,127.3623047
			c-25.8115234,18.2275391-50.1904297,35.4443359-74.7392578,60.9394531l-0.3330078,0.3457031
			c-5.7314453,5.9599609-19.1533203,19.9160156-41.1894531,27.3808594
			c-25.9775391,8.8007812-49.3056641,3.3398438-61.8388672,0.40625l-0.9951172-0.2324219
			c-32.4794922-7.5703125-66.5410156-10.5810547-99.480957-13.4931641
			c-19.4155273-1.7158203-39.4921875-3.4902344-59.1640625-6.1806641
			c-14.0820312-1.9257812-51.8828125-6.7402344-98.6328125-9.8466797
			c-12.9912109-0.8623047-16.3803711-0.9091797-18.965332-0.8847656
			c-29.2661133,0.2871094-58.0756836,10.1474609-85.6748047,29.3144531
			c-0.2607422,9.1132812-0.605957,20.4296875-5.8051758,31.6650391
			c-15.8994141,34.3505859-43.5166016,69.734375-54.1347656,73.5341797
			C652.5571289,1773.6679688,650.4853516,1774.0273438,648.2963867,1774.0273438z M443.7895508,1509.6455078l11.0751953,15.7568359
			c49.2255859,70.0488281,91.7387695,130.5458984,126.6552734,173.8994141
			c18.3837891,22.8251953,33.0756836,38.8955078,44.9145508,49.1269531
			c15.1870117,13.1259766,21.5629883,13.0205078,23.6479492,12.3173828
			c5.2944336-2.546875,30.6948242-32.0244141,46.7802734-66.7773438c4.1015625-8.8623047,4.3725586-18.3369141,4.6118164-26.6962891
			c0.0307617-1.0869141,0.0615234-2.1503906,0.0991211-3.1845703l0.1157227-3.1855469l2.5898438-1.8583984
			c30.6069336-21.9677734,62.815918-33.2705078,95.7314453-33.59375c2.8422852-0.0253906,6.5073242,0.0195312,19.9575195,0.9140625
			c47.1567383,3.1328125,85.3149414,7.9931641,99.5322266,9.9365234
			c19.3642578,2.6484375,39.2836914,4.4091797,58.5473633,6.1123047
			c33.3886719,2.9511719,67.9140625,6.0029297,101.2871094,13.7822266l1.0058594,0.2353516
			c12.0605469,2.8222656,32.2470703,7.546875,54.7050781-0.0615234
			c19.0351562-6.4482422,30.9169922-18.8037109,35.9912109-24.0791016l0.3388672-0.3525391
			c25.4052734-26.3837891,50.2744141-43.9472656,76.6044922-62.5410156
			c38.5859375-27.2480469,82.3193359-58.1318359,138.0556641-125.0615234
			c33.9804688-40.8046875,43.71875-60.4013672,54.0292969-81.1484375
			c10.1552734-20.4345703,20.65625-41.5654297,53.8046875-83.3046875l0.5751953-0.7246094
			c4.3056641-5.4160156,11.5136719-14.4824219,16.7119141-23.4746094c7.71875-13.3486328,5.6328125-17.2529297,5.3691406-17.6533203
			v-0.0009766c-0.9140625-1.3925781-4.6152344-3.1210938-12.0380859-3.4091797l-8.6621094-0.3359375l2.75-8.2207031
			c5.2304688-15.6367188,4.4082031-22.8417969,3.0986328-24.6337891c-3.4892578-4.7714844-9.9775391-5.2607422-18.7636719-5.4306641
			c-13.2402344-0.2744141-27.0273438,5.21875-41.0820312,16.2714844l-2.4423828,1.9208984l-3.0292969-0.6953125
			c-2.2773438-0.5224609-4.546875-1.0029297-6.7480469-1.4267578c-7.5195312-1.4482422-10.7080078-2.0292969-14.0908203-1.7080078
			c-6.4902344,0.6015625-11.2578125,3.3046875-15.0888672,5.4765625c-3.4541016,1.9580078-8.6083984,5.375-13.5537109,10.5341797
			l-5.4716797,5.7421875l-3.7119141-0.9765625c-2.7910156-0.7333984-6.2392578-0.3212891-10.2333984,0.1582031
			c-2.2451172,0.2695312-4.5664062,0.5478516-7.0810547,0.6679688c-8.0273438,0.3837891-12.1894531,2.3388672-14.4248047,3.3886719
			c-0.6474609,0.3037109-1.1796875,0.5449219-1.6074219,0.7109375
			c-21.9707031,8.5068359-86.4677734,100.4121094-110.7480469,135.0097656l-1.6601562,2.3671875l-2.8701172,0.3515625
			c-31.6806641,3.8779297-49.8828125,8.7148438-65.9433594,12.9833984
			c-27.7158203,7.3662109-51.6542969,13.7275391-129.1992188,12.0126953
			c-43.2192383-0.9550781-70.144043-8.6904297-98.6499023-16.8808594
			c-35.9199219-10.3193359-73.0639648-20.9921875-148.2675781-18.6425781
			c-37.2006836,1.1621094-88.1489258,2.7539062-138.5258789,31.5224609
			c-19.9213867,11.3759766-43.7553711,29.6425781-91.2387695,66.0341797
			c-16.9604492,12.9990234-33.8867188,26.28125-50.3442383,39.5048828l-3.4355469,2.7597656l-3.8359375-2.1699219
			c-4.7939453-2.7119141-14.671875-7.0341797-26.9594727-5.5019531
			C458.4990234,1497.1777344,447.5136719,1505.4394531,443.7895508,1509.6455078z"/>
	</g>
	<g>
		<path class="st0" d="M1013.8857422,1527.4150391l-2.0976562-14.8535156
			c23.3652344-3.2998047,47.4892578-6.6298828,71.703125-9.8984375
			c39.6152344-5.3466797,79.6552734-13.0673828,118.3759766-20.5341797
			c23.9970703-4.6279297,48.8105469-9.4130859,73.3378906-13.5996094l0.2001953-0.0341797
			c16.1679688-2.7587891,46.2636719-7.8945312,67.2714844-30.1005859
			c9.0410156-9.5576172,14.4667969-20.2011719,15.6904297-30.7792969
			c0.6318359-5.4619141,2.1113281-18.2509766-5.4931641-25.0078125c-3.6708984-3.2158203-26.0771484-7.8232422-31.4248047-8
			l-0.5107422-0.0263672c-10.9882812-0.9492188-22.1337891-1.5458984-33.1259766-1.7724609
			c-26.7324219-0.5507812-39.0585938-0.5537109-53.5361328,1.7099609c-1.7265625,0.2695312-3.4492188,0.5615234-5.1171875,0.8671875
			l-2.6992188-14.7558594c1.7949219-0.328125,3.6455078-0.6416016,5.4990234-0.9316406
			c15.6679688-2.4482422,28.4970703-2.4570312,56.1630859-1.8857422
			c11.3027344,0.2324219,22.7626953,0.8447266,34.0605469,1.8193359
			c4.9941406,0.3388672,32.3027344,4.3408203,40.6542969,11.7626953
			c13.4384766,11.9404297,11.2539062,30.8320312,10.4306641,37.9433594
			c-1.5986328,13.8222656-8.4082031,27.4345703-19.6943359,39.3652344
			c-24.4472656,25.8417969-57.7519531,31.5253906-75.6445312,34.5791016l-0.2001953,0.0341797
			c-24.3691406,4.1591797-49.1015625,8.9287109-73.0205078,13.5410156
			c-38.9257812,7.5058594-79.1767578,15.2675781-119.2109375,20.6708984
			C1061.3144531,1520.7929688,1037.2207031,1524.1191406,1013.8857422,1527.4150391z"/>
	</g>
	<g>
		<path class="st0" d="M1335.5898438,1370.4443359l-12.9707031-9.3691406
			c24.1699219-33.4628906,51.9521484-64.1601562,82.5751953-91.2373047
			c3.4111328-3.0166016,6.9394531-6.734375,10.6748047-10.6708984
			c11.3339844-11.9443359,25.4404297-26.8105469,47.8837891-34.109375
			c14.9345703-4.8574219,27.4365234-7.0498047,37.1689453-6.546875l-0.84375,15.9785156
			c-7.6523438-0.4091797-18.5009766,1.5957031-31.3759766,5.7832031
			c-18.5810547,6.0439453-30.6123047,18.7216797-41.2275391,29.9082031
			c-3.9833984,4.1972656-7.7451172,8.1621094-11.6816406,11.6435547
			C1386.0527344,1308.1201172,1359.0693359,1337.9365234,1335.5898438,1370.4443359z"/>
	</g>
	<g>
		<path class="st0" d="M1298.3203125,1370.6806641l-11.859375-10.7402344
			c22.2685547-24.5849609,47.5820312-52.4580078,72.0625-79.4140625
			c24.4765625-26.9511719,49.7871094-54.8203125,72.046875-79.3964844l11.859375,10.7402344
			c-22.2685547,24.5849609-47.5820312,52.4580078-72.0625,79.4140625
			C1345.890625,1318.2353516,1320.5800781,1346.1044922,1298.3203125,1370.6806641z"/>
	</g>
	<g>
		<path class="st0" d="M1263.9814453,1370.4941406l-12.1855469-10.3671875
			c18.8671875-22.1767578,39.4189453-46.4345703,59.2949219-69.8935547
			c19.8798828-23.4648438,40.4375-47.7285156,59.3164062-69.9169922l12.1855469,10.3671875
			c-18.8671875,22.1767578-39.4189453,46.4345703-59.2949219,69.8935547
			C1303.4179688,1324.0419922,1282.8603516,1348.3056641,1263.9814453,1370.4941406z"/>
	</g>
	<g>
		<path class="st0" d="M73,1005.4783325c-6.8029404-9.029541-13.6360397-16.0183105-20.5060997-20.5061035
			C61.5585213,979.6113892,68.3146667,972.7234497,73,964.4661255c5.1884384,7.7137451,11.9256287,14.6015625,20.5061035,20.5061035
			C84.9697647,990.6948853,77.8543701,997.3471069,73,1005.4783325z"/>
	</g>
	<g>
		<path class="st0" d="M1922.722168,1005.4783325c-6.8029785-9.029541-13.6359863-16.0183105-20.5061035-20.5061035
			c9.0645752-5.3608398,15.8208008-12.2487793,20.5061035-20.5061035
			c5.1884766,7.7137451,11.9256592,14.6015625,20.5061035,20.5061035
			C1934.6918945,990.6948853,1927.5765381,997.3471069,1922.722168,1005.4783325z"/>
	</g>
	<g class="st2">
		<path class="st0" d="M565.3154297,684.1123047l-13.7285156,24.8813477l-23.8554688-13.1630859l-32.0830078,58.1425781
			l23.8554688,13.1630859l-13.6816406,24.7958984l-52.7558594-29.1103516l4.0576172-7.3535156
			c-9.2050781-10.1347656-22.3710938-21.5454102-39.5009766-34.2319336
			c-17.1289062-12.6860352-36.6650391-25.0839844-58.6123047-37.1933594l-4.1894531-2.3120117l44.0664062-79.8598633
			l109.4433594,60.3901367l4.0576172-7.3535156L565.3154297,684.1123047z M488.421875,698.3432617l-82.0830078-45.2924805
			l-5.8974609,10.6879883l1.0253906,0.565918c26.5058594,14.6259766,51.9521484,32.3857422,76.3388672,53.2768555
			L488.421875,698.3432617z"/>
	</g>
</g>
<g id="Layer_5">
	<g>
		<path class="st1" d="M990.5,804.5c-19.6645508,32.3778076-59.8321533,108.3462524-61,213
			c-1.2412109,111.2280273,42.2744141,191.8428955,62,224c19.3968506-31.2990723,62.0794678-109.5084229,62-218
			C1053.4200439,914.2523804,1010.0247803,835.6859131,990.5,804.5z"/>
	</g>
	<g>
		<path class="st1" d="M1069.5,974.5c17.0623779-14.1419678,31.7564697-29.963623,51-43
			c-8.2858887-32.1219482-9.1102295-65.3444824-7-99c-18.2769775,10.7310181-38.1218262,22.6069336-63,55
			C1057.9853516,914.1974487,1065.9998779,947.2423096,1069.5,974.5z"/>
	</g>
	<g>
		<path class="st1" d="M1197.5,930.5c-16.9891357,155.9147949-73.0574951,276.8608398-185,317c31-64,60-147,59-249
			C1104.2928467,959.9249268,1151.3658447,940.4256592,1197.5,930.5z"/>
	</g>
	<g>
		<path class="st1" d="M786.5,930.111084c17.017395,155.9147949,71.8711548,277.2497559,184,317.388916
			c-41.6408691-62.4572754-64-182-60-249C877.6525269,959.9249268,832.7109375,940.0367432,786.5,930.111084z"/>
	</g>
	<g>
		<path class="st1" d="M1186.5,1077.5c31.9841309-0.4776611,58.8369141,9.8693848,82,28
			c-39.9500732,133.6589355-179.9257812,188.5452881-252,161C1107.6158447,1238.4564209,1153.5,1160.5,1186.5,1077.5z"/>
	</g>
	<g>
		<path class="st1" d="M800.3441772,1072.8499756c-33.8735962-0.4776611-62.3127441,9.8693848-86.8441772,28
			c48.0906372,130.6728516,182.7335815,194.2702637,254,166.6500244
			C871.0014038,1239.4564209,835.2937012,1155.8499756,800.3441772,1072.8499756z"/>
	</g>
	<g>
		<path class="st1" d="M911.4614258,974.6583252c-18.0531616-14.1419678-33.6004639-29.963623-53.9614258-43
			c8.7670288-32.1219482,9.6392212-65.3444824,7.4064941-99c19.3382568,10.7310181,40.3354492,22.6069336,66.6582642,55
			c-7.9199829,26.6974487-16.3999023,59.7423096-20.1032715,87H911.4614258z"/>
	</g>
</g>
<g id="Layer_2">
	<g class="st2">
		<g>
			<path class="st0" d="M330.8935547,298.2749023l13.6894531-12.5097656l20.3417969,22.1308594
				c2.5136719-2.4165039,2.5400391-5.0595703,0.0771484-7.9282227l-9.1074219-10.4887695
				c-3.3720703-3.8637695-4.96875-7.0878906-4.7900391-9.671875l12.6191406-11.53125
				c-0.0664062,2.4023438,1.7392578,5.5942383,5.4169922,9.5751953l8.3056641,8.9599609
				c5.0234375,5.4106445,4.7880859,11.3208008-0.7050781,17.7290039c6.8769531-4.8945312,12.8232422-4.5541992,17.8388672,1.0219727
				l7.5830078,8.4291992c3.6152344,3.9995117,6.8085938,6.2792969,9.5839844,6.8398438l-12.6201172,11.53125
				c-2.6767578,0.0249023-5.7431641-1.8554688-9.2021484-5.640625l-9.3671875-10.2514648
				c-1.1855469-1.2973633-2.5332031-1.9799805-4.0439453-2.0483398c-1.5117188-0.0673828-2.9033203,0.4599609-4.1787109,1.5844727
				l20.2714844,22.3139648l-13.6904297,12.5097656L330.8935547,298.2749023z"/>
		</g>
	</g>
	<g class="st2">
		<g>
			<path class="st0" d="M535.0776367,165.6831055l-11.7519531,6.8041992l28.5390625,49.2871094l-16.0488281,9.2924805
				l-35.6738281-61.6079102l27.8007812-16.097168L535.0776367,165.6831055z"/>
		</g>
	</g>
	<g class="st2">
		<g>
			<path class="st0" d="M713.4472656,74.7666016l31.7148438,64.5605469l-18.0117188,5.75l-4.8349609-11.8808594
				l-6.3037109,2.0126953l2.8291016,12.5214844l-18.2216797,5.8164062l-12.6464844-70.6474609L713.4472656,74.7666016z
				 M718.0175781,121.3291016c-3.3417969-7.3916016-7.2666016-16.59375-11.7714844-27.6103516
				c2.3476562,13.5517578,4.2490234,23.4013672,5.7050781,29.5478516L718.0175781,121.3291016z"/>
		</g>
	</g>
	<g class="st2">
		<g>
			<path class="st0" d="M1264.5039062,146.2924805l-17.7958984-5.2167969l16.0244141-54.6523438l-5.2714844-1.5458984
				l-16.0244141,54.6523438l-17.7958984-5.2177734l20.03125-68.3154297l40.8623047,11.9814453L1264.5039062,146.2924805z"/>
		</g>
	</g>
	<g class="st2">
		<g>
			<path class="st0" d="M1460.1425781,201.9321289c-3.4902344,6.2382812-6.1103516,10.5722656-7.8554688,13.0019531
				c-1.7480469,2.4316406-3.9941406,4.2871094-6.7431641,5.5683594s-5.7626953,1.7607422-9.0390625,1.4375
				c-3.2763672-0.3242188-6.6669922-1.4658203-10.1689453-3.4257812c-3.3232422-1.8603516-6.0039062-4.0751953-8.0419922-6.6416016
				c-2.0371094-2.5673828-3.2529297-5.3886719-3.6474609-8.4638672c-0.3945312-3.0742188-0.0292969-5.9755859,1.0947266-8.703125
				c1.1240234-2.7285156,3.4755859-7.2880859,7.0517578-13.6796875l5.9462891-10.6220703
				c3.4912109-6.2373047,6.1103516-10.5712891,7.8564453-13.0019531c1.7460938-2.4296875,3.9941406-4.2861328,6.7431641-5.5673828
				s5.7607422-1.7607422,9.0380859-1.4375s6.6669922,1.4648438,10.1699219,3.4257812
				c3.3222656,1.859375,6.0039062,4.0742188,8.0410156,6.6425781c2.0380859,2.5664062,3.2539062,5.3876953,3.6484375,8.4619141
				c0.3945312,3.0751953,0.0292969,5.9765625-1.0957031,8.7041016c-1.1230469,2.7285156-3.4746094,7.2880859-7.0517578,13.6787109
				L1460.1425781,201.9321289z M1455.4179688,172.4956055c1.6171875-2.8886719,2.4912109-4.8251953,2.6230469-5.8095703
				c0.1298828-0.984375-0.3027344-1.7548828-1.2988281-2.3134766c-0.84375-0.4716797-1.671875-0.5068359-2.484375-0.1064453
				c-0.8125,0.4023438-2.1123047,2.2001953-3.9013672,5.3964844l-16.2275391,28.9902344
				c-2.0175781,3.6035156-3.1152344,5.9101562-3.2929688,6.9189453c-0.1787109,1.0078125,0.2695312,1.8125,1.34375,2.4130859
				c1.0976562,0.6152344,2.0742188,0.5234375,2.9238281-0.2763672c0.8505859-0.7998047,2.2988281-3.0273438,4.3457031-6.6826172
				L1455.4179688,172.4956055z"/>
		</g>
	</g>
	<g class="st2">
		<g>
			<path class="st0" d="M1647.3535156,290.0405273l-35.1445312,31.8408203
				c-5.5449219,5.0234375-9.6572266,8.3544922-12.3339844,9.9912109c-2.6757812,1.6367188-5.4160156,2.0683594-8.21875,1.2958984
				c-2.8046875-0.7724609-6.4355469-3.1474609-10.8964844-7.1259766l-8.0673828-7.1933594l6.1123047-6.8544922l0.8212891,0.7324219
				c1.8173828,1.6201172,3.0722656,2.4736328,3.7626953,2.5605469c0.6914062,0.0849609,1.3085938-0.1787109,1.8544922-0.7900391
				c0.0380859-0.0449219,1.1123047-1.7773438,3.21875-5.1972656l28.3955078-46.4521484l11.9960938,10.6972656
				l-25.1230469,37.0058594l31.6347656-31.2001953L1647.3535156,290.0405273z"/>
		</g>
	</g>
	<g id="Layer_3">
		<g>
			<g>
				<polygon class="st1" points="756.9467163,1676.3345947 735.7177124,1701.1644287 499.434967,1491.7110596 
					520.6640015,1466.8812256 				"/>
			</g>
			<g>
				<path class="st0" d="M736.456543,1711.8417969l-247.5092773-219.4052734l30.9780273-36.2333984l247.5092773,219.40625
					L736.456543,1711.8417969z M509.9228516,1490.9853516l225.0561523,199.5019531l11.4799805-13.4267578L521.402832,1477.5585938
					L509.9228516,1490.9853516z"/>
			</g>
		</g>
		<g class="st2">
			<g>
				<path class="st0" d="M281.652832,1647.7373047l-7.5668945-9.046875l8.6728516-7.2539062l-17.6811523-21.1386719
					l-8.6728516,7.2539062l-7.5405273-9.015625l19.1796875-16.0429688l2.2358398,2.6738281
					c5.3027344-2.0400391,11.6933594-5.421875,19.1728516-10.1455078s15.2084961-10.4228516,23.1865234-17.0957031
					l1.5239258-1.2744141l24.2861328,29.0341797l-39.7905273,33.2822266l2.2363281,2.6738281L281.652832,1647.7373047z
					 M287.6860352,1615.8505859l29.8427734-24.9628906l-3.2504883-3.8847656l-0.3730469,0.3115234
					c-9.6367188,8.0605469-20.3271484,15.2412109-32.0698242,21.5410156L287.6860352,1615.8505859z"/>
			</g>
		</g>
		<g class="st2">
			<g>
				<path class="st0" d="M331.7192383,1636.5859375l-10.512207-11.1992188l2.6298828-2.46875
					c3.0332031-2.8466797,5.7006836-4.6933594,8.0019531-5.5380859c2.3007812-0.8447266,5.0712891-0.8056641,8.3105469,0.1201172
					c3.2397461,0.9238281,6.4404297,3.0703125,9.6025391,6.4394531c3.7900391,4.0371094,5.9331055,7.7509766,6.4291992,11.140625
					c0.4936523,3.3896484-0.1035156,6.2666016-1.7929688,8.6308594c-1.6904297,2.3652344-5.7753906,6.5888672-12.2563477,12.671875
					l-19.6791992,18.4736328l-10.9008789-11.6123047l3.4936523-3.2802734
					c-2.0849609,0.5869141-4.0180664,0.6318359-5.800293,0.1376953c-1.7827148-0.4960938-3.4223633-1.5410156-4.9204102-3.1367188
					c-1.9604492-2.0878906-3.171875-4.5546875-3.6367188-7.3964844c-0.465332-2.84375,1.2827148-6.125,5.2421875-9.8417969
					l3.2211914-3.0234375c2.9350586-2.7548828,5.3686523-4.1689453,7.3017578-4.2412109
					c1.9326172-0.0732422,5.328125,1.0576172,10.1860352,3.3896484c5.2158203,2.4775391,8.2197266,3.6035156,9.0097656,3.3818359
					c0.7915039-0.2236328,2.0043945-1.1025391,3.6401367-2.6376953c2.0483398-1.9238281,3.2387695-3.328125,3.5732422-4.2167969
					c0.3334961-0.8867188,0.1679688-1.6855469-0.4975586-2.3945312c-0.7587891-0.8085938-1.4916992-1.0654297-2.1977539-0.7714844
					c-0.7075195,0.2919922-2.1538086,1.4648438-4.3408203,3.5175781L331.7192383,1636.5859375z M329.8916016,1645.4160156
					c-3.1923828-0.5976562-5.4042969-0.6054688-6.6362305-0.0234375c-1.2329102,0.5820312-2.7348633,1.7060547-4.5078125,3.3701172
					c-2.0292969,1.9052734-3.2138672,3.2666016-3.5546875,4.0878906c-0.3422852,0.8203125-0.1435547,1.625,0.5961914,2.4130859
					c0.7026367,0.7480469,1.3920898,1.0185547,2.0678711,0.8105469c0.6743164-0.2070312,1.9985352-1.2363281,3.9682617-3.0859375
					L329.8916016,1645.4160156z"/>
			</g>
		</g>
		<g class="st2">
			<g>
				<path class="st0" d="M348.5532227,1700.3486328l29.3994141-30.7099609l-4.1860352-4.0078125l-18.777832,19.6152344
					c-3.418457,3.5703125-6.2714844,5.7304688-8.5581055,6.4785156c-2.2871094,0.7470703-4.4951172,0.4648438-6.6254883-0.8457031
					c-2.1308594-1.3105469-5.2060547-3.8896484-9.2265625-7.7382812l-1.9316406-1.8496094l6.0820312-6.3535156
					c1.5205078,1.4199219,2.7363281,2.2207031,3.6494141,2.4003906c0.9101562,0.1816406,2.4130859-0.8222656,4.5053711-3.0068359
					l26.9052734-28.1044922l27.6938477,26.5136719l-37.1904297,38.8466797L348.5532227,1700.3486328z"/>
			</g>
		</g>
		<g class="st2">
			<g>
				<path class="st0" d="M407.6865234,1732.3447266c-3.2021484,3.7314453-5.9345703,6.0341797-8.1958008,6.9052734
					c-2.2617188,0.8720703-4.496582,0.7070312-6.7050781-0.4941406c-2.2089844-1.2011719-5.4257812-3.6132812-9.6494141-7.2382812
					l-14.3632812-12.3242188l35.0214844-40.8144531l12.3334961,10.5839844l-11.6645508,13.59375l2.0297852,1.7412109
					c3.956543,3.3955078,6.706543,6.1650391,8.2504883,8.3085938c1.5429688,2.1435547,2.090332,4.4091797,1.640625,6.8007812
					s-2.1616211,5.3203125-5.1347656,8.7841797L407.6865234,1732.3447266z M396.6157227,1720.2285156l1.3989258-1.6308594
					c1.8120117-2.1113281,2.7006836-3.5742188,2.6679688-4.3857422c-0.0336914-0.8115234-1.0073242-2.0927734-2.9233398-3.8427734
					l-9.2895508,10.8261719c1.6396484,1.4072266,2.9331055,2.1523438,3.8779297,2.2324219
					C393.2924805,1723.5097656,394.715332,1722.4423828,396.6157227,1720.2285156z"/>
			</g>
		</g>
		<g class="st2">
			<g>
				<path class="st0" d="M436.8076172,1774.4667969l-12.9130859-9.9355469l12.0844727-15.7070312l-4.6577148-3.5830078
					l-12.0844727,15.7080078l-12.8803711-9.9101562l32.7924805-42.625l12.8803711,9.9101562l-11.7875977,15.3212891
					l4.6577148,3.5830078l11.7875977-15.3212891l12.9130859,9.9345703L436.8076172,1774.4667969z"/>
			</g>
		</g>
		<g class="st2">
			<g>
				<path class="st0" d="M491.605957,1781.0302734l-17.4619141-12.0146484l-6.5927734,9.5820312
					c-1.378418,2.0029297-2.1220703,3.3935547-2.2304688,4.171875c-0.109375,0.7783203,0.2480469,1.4501953,1.0717773,2.0166016
					c1.0234375,0.7050781,1.972168,0.7910156,2.8461914,0.2617188c0.8730469-0.53125,2.0678711-1.8984375,3.5834961-4.1015625
					l4.0205078-5.84375l12.7875977,8.7988281l-2.2514648,3.2714844c-1.8833008,2.7382812-3.503418,4.7226562-4.859375,5.9550781
					c-1.355957,1.2314453-3.2416992,2.2460938-5.6591797,3.0419922c-2.4169922,0.796875-4.8867188,0.9414062-7.4086914,0.4365234
					c-2.5219727-0.5058594-5.2524414-1.7685547-8.1904297-3.7900391c-2.8496094-1.9609375-5.0810547-4.1025391-6.6953125-6.4267578
					c-1.6157227-2.3242188-2.5351562-4.6210938-2.7597656-6.8925781c-0.2265625-2.2695312,0.0205078-4.4277344,0.7407227-6.4746094
					c0.7182617-2.046875,2.2119141-4.7167969,4.4785156-8.0117188l8.890625-12.921875
					c2.6645508-3.8730469,5.2885742-6.5683594,7.8745117-8.0849609c2.5849609-1.5175781,5.4775391-2.0517578,8.6791992-1.6044922
					c3.2001953,0.4482422,6.3476562,1.7363281,9.4418945,3.8652344c3.7836914,2.6035156,6.4121094,5.46875,7.8842773,8.5957031
					c1.4711914,3.1289062,1.8876953,6.21875,1.2470703,9.2714844c-0.640625,3.0507812-2.4389648,6.7265625-5.394043,11.0214844
					L491.605957,1781.0302734z M483.0454102,1764.5146484l2.2285156-3.2392578
					c1.5771484-2.2919922,2.4731445-3.8564453,2.6879883-4.6933594c0.2138672-0.8359375-0.0576172-1.5146484-0.8134766-2.0351562
					c-0.9350586-0.6435547-1.7094727-0.7568359-2.3217773-0.3427734c-0.6137695,0.4140625-1.777832,1.8681641-3.4926758,4.3603516
					l-2.2285156,3.2392578L483.0454102,1764.5146484z"/>
			</g>
		</g>
		<g class="st2">
			<g>
				<path class="st0" d="M526.09375,1816.2646484c-2.8686523,4.6757812-5.840332,7.2333984-8.9174805,7.6757812
					c-3.0761719,0.4423828-8.0234375-1.4277344-14.8398438-5.6103516l-15.9941406-9.8125l28.1240234-45.8388672
					l16.4775391,10.109375c5.6420898,3.4609375,8.9560547,6.7773438,9.9423828,9.9492188
					c0.9853516,3.1728516,0.09375,7.015625-2.675293,11.5292969c-3.1796875,5.1826172-7.6821289,6.4765625-13.5087891,3.8837891
					c2.5263672,2.1845703,4.0688477,4.6455078,4.625,7.3798828c0.5576172,2.734375,0.0302734,5.4140625-1.5800781,8.0400391
					L526.09375,1816.2646484z M513.5209961,1805.6025391l0.9541016-1.5546875
					c1.2148438-1.9804688,1.7084961-3.3789062,1.4833984-4.2001953c-0.2265625-0.8203125-1.3408203-1.8447266-3.3442383-3.0742188
					l-6.5063477,10.6054688c1.8652344,1.1445312,3.2626953,1.6298828,4.1948242,1.4550781
					C511.2319336,1808.6611328,512.3056641,1807.5839844,513.5209961,1805.6025391z M517.8706055,1788.2060547
					c2.1181641,1.3007812,3.5761719,1.8300781,4.3735352,1.5898438c0.796875-0.2402344,1.6757812-1.1425781,2.6367188-2.7089844
					c0.8051758-1.3125,1.0981445-2.3847656,0.8793945-3.2148438c-0.2192383-0.8330078-1.3295898-1.8632812-3.3330078-3.0927734
					L517.8706055,1788.2060547z"/>
			</g>
		</g>
		<g class="st2">
			<g>
				<path class="st0" d="M577.125,1820.6865234l-6.2910156,11.5732422c-2.3105469,4.2490234-4.2172852,7.2490234-5.722168,8.9980469
					c-1.5048828,1.75-3.425293,3.1044922-5.7612305,4.0644531c-2.3369141,0.9599609-4.824707,1.2519531-7.4658203,0.8769531
					c-2.640625-0.3740234-5.3847656-1.3359375-8.2333984-2.8847656c-3.1816406-1.7294922-5.6845703-3.5439453-7.5117188-5.4443359
					c-1.8271484-1.8994141-2.9682617-3.8886719-3.4228516-5.9658203c-0.4550781-2.0761719-0.3989258-4.2587891,0.1708984-6.5498047
					c0.5673828-2.2890625,1.9418945-5.4394531,4.1230469-9.4521484l6.5810547-12.1054688
					c2.3867188-4.3916016,4.7260742-7.5634766,7.0180664-9.5166016c2.2910156-1.953125,5.0776367-3.0058594,8.3598633-3.1582031
					c3.28125-0.1542969,6.8447266,0.8144531,10.6904297,2.9052734c3.2275391,1.7548828,5.7382812,3.7421875,7.5302734,5.9609375
					c1.7919922,2.2197266,2.8964844,4.4423828,3.3168945,6.6689453c0.418457,2.2275391,0.4155273,4.2851562-0.012207,6.1757812
					C580.0673828,1814.7216797,578.9433594,1817.3408203,577.125,1820.6865234z M564.6757812,1809.3066406
					c1.315918-2.4208984,2.0136719-4.0166016,2.0947266-4.7880859c0.0805664-0.7705078-0.3056641-1.3886719-1.1601562-1.8535156
					c-0.8544922-0.4638672-1.5957031-0.4589844-2.2226562,0.015625c-0.6259766,0.4736328-1.5976562,1.9208984-2.9140625,4.3417969
					l-11.5942383,21.3291016c-1.2133789,2.2314453-1.8608398,3.7626953-1.9438477,4.5947266
					c-0.0830078,0.8300781,0.2905273,1.4716797,1.121582,1.9238281c0.8544922,0.4648438,1.5864258,0.4628906,2.1948242-0.0068359
					c0.6079102-0.46875,1.4677734-1.7236328,2.5776367-3.765625L564.6757812,1809.3066406z"/>
			</g>
		</g>
		<g class="st2">
			<g>
				<path class="st0" d="M617.6201172,1841.8789062l-13.9267578-6.6679688l2.6767578-5.5917969
					c0.9335938-1.9501953,1.4082031-3.3486328,1.4238281-4.1933594c0.0161133-0.8476562-0.402832-1.4746094-1.2558594-1.8828125
					c-0.8535156-0.4082031-1.5712891-0.3769531-2.1552734,0.0917969s-1.3833008,1.7636719-2.3984375,3.8847656
					l-10.9541016,22.8818359c-0.8291016,1.7314453-1.2314453,3.1347656-1.2060547,4.2080078
					c0.0234375,1.0761719,0.4619141,1.8173828,1.3154297,2.2265625c0.9990234,0.4775391,1.8916016,0.3505859,2.6767578-0.3818359
					c0.7841797-0.7324219,1.777832-2.3535156,2.9794922-4.8642578l2.7651367-5.7753906l13.159668,6.2998047
					c-1.8793945,3.8632812-3.4101562,6.7021484-4.5942383,8.5166016c-1.1826172,1.8154297-2.9506836,3.4111328-5.3012695,4.7861328
					c-2.3515625,1.3759766-4.8837891,2.0507812-7.5966797,2.0244141c-2.7138672-0.0253906-5.703125-0.8203125-8.96875-2.3828125
					c-4.1669922-1.9951172-7.1289062-4.2890625-8.8818359-6.8808594c-1.7553711-2.5927734-2.5234375-5.4160156-2.3032227-8.4716797
					c0.2192383-3.0546875,1.4609375-6.9462891,3.7241211-11.6738281l6.5976562-13.78125
					c1.9716797-4.1181641,3.8720703-7.0273438,5.7050781-8.7265625c1.8310547-1.6992188,4.4941406-2.7236328,7.9863281-3.0732422
					c3.4926758-0.3505859,7.1757812,0.4023438,11.0507812,2.2578125c3.8496094,1.8427734,6.7490234,4.234375,8.6977539,7.1728516
					c1.9467773,2.9394531,2.7768555,5.8681641,2.4887695,8.7861328
					C621.0361328,1833.5839844,619.8017578,1837.3222656,617.6201172,1841.8789062z"/>
			</g>
		</g>
		<g class="st2">
			<g>
				<path class="st0" d="M663.6098633,1839.3662109l-4.3764648,10.3808594l-8.6264648-3.6367188l-16.5161133,39.1748047
					l-15.0493164-6.3457031l16.5161133-39.1738281l-8.6640625-3.6523438l4.3764648-10.3808594L663.6098633,1839.3662109z"/>
			</g>
		</g>
		<g class="st2">
			<g>
				<path class="st0" d="M697.9238281,1872.2207031l-4.5273438,12.3681641
					c-1.6630859,4.5429688-3.1103516,7.7890625-4.3427734,9.7402344s-2.9335938,3.5722656-5.1035156,4.8632812
					c-2.1708984,1.2919922-4.5898438,1.9462891-7.2568359,1.9609375c-2.6679688,0.0175781-5.5234375-0.53125-8.5683594-1.6464844
					c-3.4003906-1.2451172-6.1416016-2.6738281-8.2275391-4.2851562c-2.0859375-1.6123047-3.5058594-3.4121094-4.2587891-5.4003906
					c-0.7548828-1.9873047-1.0195312-4.1552734-0.7910156-6.5039062c0.2255859-2.3486328,1.125-5.6660156,2.6943359-9.9550781
					l4.7373047-12.9394531c1.7177734-4.6933594,3.5664062-8.1738281,5.5478516-10.4414062
					c1.9804688-2.2675781,4.5830078-3.7167969,7.8076172-4.3486328c3.2226562-0.6328125,6.890625-0.1962891,11,1.3085938
					c3.4501953,1.2626953,6.2255859,2.8613281,8.3222656,4.7939453c2.0976562,1.9335938,3.5166016,3.9707031,4.2587891,6.1113281
					c0.7402344,2.1416016,1.0380859,4.1777344,0.8916016,6.1113281
					C699.9609375,1865.8876953,699.2333984,1868.6435547,697.9238281,1872.2207031z M683.9423828,1862.7861328
					c0.9472656-2.5878906,1.4042969-4.2685547,1.3710938-5.0429688s-0.5058594-1.3291016-1.4189453-1.6640625
					c-0.9140625-0.3339844-1.6455078-0.2207031-2.1962891,0.3398438c-0.5507812,0.5615234-1.2998047,2.1347656-2.2470703,4.7226562
					l-8.3457031,22.796875c-0.8730469,2.3857422-1.2890625,3.9951172-1.25,4.8300781
					c0.0400391,0.8339844,0.5029297,1.4140625,1.3916016,1.7392578c0.9130859,0.3349609,1.6367188,0.2246094,2.1708984-0.328125
					c0.5322266-0.5527344,1.1982422-1.9199219,1.9980469-4.1025391L683.9423828,1862.7861328z"/>
			</g>
		</g>
		<g class="st2">
			<g>
				<path class="st0" d="M732.2822266,1919.5820312l-15.605957-4.8154297l4.3618164-14.1347656
					c-2.5361328,1.2519531-5.9472656,1.2177734-10.2314453-0.1044922c-2.9697266-0.9160156-5.2080078-2.1855469-6.7138672-3.8095703
					c-1.5068359-1.625-2.1552734-3.5078125-1.9462891-5.6494141c0.2080078-2.140625,1.0053711-5.4580078,2.3916016-9.9501953
					l7.4326172-24.0859375l15.6455078,4.828125l-7.6601562,24.8222656
					c-0.8447266,2.7373047-1.2851562,4.6230469-1.3222656,5.6582031c-0.0366211,1.0341797,0.5004883,1.7226562,1.6108398,2.0654297
					c0.9291992,0.2871094,1.7055664,0.0595703,2.3305664-0.6796875c0.6240234-0.7412109,1.3349609-2.4013672,2.1318359-4.9833984
					l7.8271484-25.3652344l15.6064453,4.8164062L732.2822266,1919.5820312z"/>
			</g>
		</g>
		<g class="st2">
			<g>
				<path class="st0" d="M780.1445312,1931.9716797l-15.7958984-3.9902344l4.8544922-19.2148438l-5.6972656-1.4394531
					l-4.8544922,19.2148438l-15.7568359-3.9804688l13.1728516-52.140625l15.7568359,3.9804688l-4.7353516,18.7421875
					l5.6972656,1.4394531l4.7353516-18.7421875l15.7958984,3.9902344L780.1445312,1931.9716797z"/>
			</g>
		</g>
		<g class="st2">
			<g>
				<path class="st0" d="M832.2392578,1926.7128906c-0.8925781,4.8339844-2.097168,8.1972656-3.6137695,10.0878906
					c-1.5170898,1.890625-3.5322266,2.8710938-6.0449219,2.9433594c-2.5136719,0.0722656-6.5073242-0.3964844-11.9799805-1.40625
					l-18.6123047-3.4355469l9.762207-52.8867188l15.9814453,2.9492188l-3.2509766,17.6152344l2.6303711,0.4863281
					c5.1269531,0.9453125,8.8964844,1.9570312,11.3081055,3.0351562c2.4111328,1.0761719,4.0239258,2.7617188,4.8369141,5.0546875
					s0.8046875,5.6855469-0.0239258,10.1757812L832.2392578,1926.7128906z M816.5786133,1921.8027344l0.3901367-2.1132812
					c0.5048828-2.7363281,0.5385742-4.4472656,0.1020508-5.1328125c-0.4365234-0.6835938-1.9228516-1.3027344-4.4589844-1.8515625
					l-2.5893555,14.0273438c2.125,0.3925781,3.6176758,0.3867188,4.4746094-0.0195312
					C815.3554688,1926.3085938,816.0493164,1924.671875,816.5786133,1921.8027344z M850.3349609,1945.671875l-15.9814453-2.9511719
					l9.762207-52.8867188l15.9814453,2.9511719L850.3349609,1945.671875z"/>
			</g>
		</g>
		<g class="st2">
			<g>
				<path class="st0" d="M902.6635742,1951.8427734l-14.1699219-1.6484375l3.3574219-28.8642578l-14.6694336,27.5488281
					l-14.8144531-1.7236328l6.2133789-53.4189453l14.1704102,1.6484375l-3.3291016,28.6210938l14.4394531-27.3291016
					l15.015625,1.7470703L902.6635742,1951.8427734z M895.0883789,1880.8652344l6.8432617,0.7958984
					c-0.5854492,3.6318359-1.9936523,6.4462891-4.2260742,8.4443359c-2.230957,1.9980469-5.1054688,2.7919922-8.6206055,2.3837891
					c-3.5424805-0.4121094-6.15625-1.8515625-7.8408203-4.3193359c-1.6860352-2.4667969-2.3979492-5.5214844-2.1376953-9.1630859
					l6.84375,0.7958984c-0.105957,3.7148438,1.1962891,5.7285156,3.9077148,6.0439453
					C892.5952148,1886.1650391,894.3383789,1884.5058594,895.0883789,1880.8652344z"/>
			</g>
		</g>
		<g class="st2">
			<g>
				<path class="st0" d="M968.4990234,1901.8369141l-0.4970703,11.2548828l-9.3525391-0.4130859l-1.875,42.4726562
					l-16.3164062-0.7197266l1.875-42.4726562l-9.3935547-0.4150391l0.4970703-11.2548828L968.4990234,1901.8369141z"/>
			</g>
		</g>
		<g class="st2">
			<g>
				<path class="st0" d="M1012.1591797,1929.6621094l-21.1953125,0.0917969l0.0507812,11.6308594
					c0.0102539,2.4316406,0.1923828,3.9980469,0.5473633,4.6982422c0.3535156,0.7021484,1.0307617,1.0507812,2.0302734,1.0458984
					c1.2416992-0.0048828,2.0708008-0.4755859,2.4868164-1.4091797c0.4140625-0.9345703,0.6152344-2.7382812,0.6035156-5.4121094
					l-0.0302734-7.0927734l15.5214844-0.0673828l0.0175781,3.9716797c0.0146484,3.3232422-0.1835938,5.8769531-0.5947266,7.6621094
					s-1.3818359,3.6943359-2.9130859,5.7265625c-1.53125,2.0332031-3.4775391,3.5615234-5.8369141,4.5849609
					c-2.3603516,1.0234375-5.3222656,1.5429688-8.8886719,1.5585938c-3.4584961,0.0146484-6.5136719-0.4716797-9.1655273-1.4599609
					c-2.652832-0.9882812-4.7182617-2.3496094-6.1977539-4.0869141c-1.480957-1.7353516-2.5087891-3.6494141-3.0849609-5.7412109
					c-0.5766602-2.0908203-0.8735352-5.1367188-0.8911133-9.1357422l-0.0678711-15.6835938
					c-0.0205078-4.7011719,0.5976562-8.4111328,1.8564453-11.1318359c1.2578125-2.7216797,3.3291016-4.8105469,6.2143555-6.2685547
					c2.8842773-1.4580078,6.2041016-2.1943359,9.9599609-2.2109375c4.5922852-0.0195312,8.3852539,0.8349609,11.378418,2.5634766
					c2.9931641,1.7304688,5.0976562,4.03125,6.3125,6.9042969c1.2138672,2.8710938,1.8330078,6.9160156,1.8554688,12.1298828
					L1012.1591797,1929.6621094z M995.7080078,1920.9794922l-0.0175781-3.9316406
					c-0.0117188-2.7822266-0.1689453-4.578125-0.46875-5.3876953c-0.3017578-0.8085938-0.9111328-1.2119141-1.8291016-1.2070312
					c-1.1342773,0.0048828-1.8359375,0.3525391-2.1025391,1.0419922c-0.2675781,0.6904297-0.394043,2.5488281-0.3808594,5.5742188
					l0.0170898,3.9316406L995.7080078,1920.9794922z"/>
			</g>
		</g>
		<g class="st2">
			<g>
				<path class="st0" d="M1052.9589844,1899.7646484l-5.15625,26.0029297l9.3779297,27.6279297l-15.8945312,0.8427734
					c-1.953125-7.0009766-3.4746094-13.0351562-4.5615234-18.1015625c-0.75,6.4384766-1.6113281,12.5986328-2.5820312,18.4794922
					l-13.6689453,0.7246094l5.5556641-28.4189453l-8.4013672-25.2851562l13.6689453-0.7246094
					c2.7861328,10.8613281,4.2998047,17.03125,4.5419922,18.5097656c1.0927734-9.25,1.9589844-15.5458984,2.6015625-18.8876953
					L1052.9589844,1899.7646484z"/>
			</g>
		</g>
		<g class="st2">
			<g>
				<path class="st0" d="M1103.3613281,1948.8525391l-16.2060547,1.6660156l-2.0273438-19.7148438l-5.8457031,0.6015625
					l2.0273438,19.7148438l-16.1660156,1.6621094l-5.5019531-53.4980469l16.1660156-1.6621094l1.9775391,19.2304688
					l5.8457031-0.6015625l-1.9775391-19.2304688l16.2060547-1.6660156L1103.3613281,1948.8525391z"/>
			</g>
		</g>
		<g class="st2">
			<g>
				<path class="st0" d="M1155.1621094,1940.9707031l-14.0878906,2.2402344l-4.5625-28.6982422l-6.6855469,30.4853516
					l-14.7285156,2.3417969l-8.4414062-53.1123047l14.0878906-2.2392578l4.5234375,28.4570312l6.5234375-30.2138672
					l14.9296875-2.3730469L1155.1621094,1940.9707031z"/>
			</g>
		</g>
		<g class="st2">
			<g>
				<path class="st0" d="M1203.25,1930.9033203l-15.96875,3.4326172l-3.109375-14.4619141
					c-1.5976562,2.3330078-4.5898438,3.9716797-8.9746094,4.9140625c-3.0371094,0.6533203-5.6113281,0.6416016-7.71875-0.0400391
					c-2.109375-0.6796875-3.5957031-2.0048828-4.4609375-3.9746094c-0.8652344-1.96875-1.7929688-5.2519531-2.78125-9.8476562
					l-5.296875-24.6445312l16.0078125-3.4414062l5.4589844,25.3974609c0.6015625,2.8007812,1.140625,4.6611328,1.6152344,5.5810547
					c0.4726562,0.9199219,1.2773438,1.2578125,2.4140625,1.0136719c0.9511719-0.2041016,1.5175781-0.78125,1.7011719-1.7324219
					c0.1816406-0.9521484-0.0117188-2.7470703-0.5800781-5.3896484l-5.578125-25.9521484l15.9667969-3.4326172L1203.25,1930.9033203
					z"/>
			</g>
		</g>
		<g class="st2">
			<g>
				<path class="st0" d="M1243.2880859,1893.5244141l-20.4648438,5.5195312l3.0283203,11.2294922
					c0.6328125,2.3476562,1.2109375,3.8154297,1.7333984,4.4013672c0.5214844,0.5878906,1.2646484,0.7519531,2.2314453,0.4912109
					c1.1992188-0.3232422,1.8789062-0.9912109,2.0410156-2s-0.1054688-2.8046875-0.8017578-5.3867188l-1.8466797-6.8476562
					l14.9863281-4.0419922l1.0351562,3.8339844c0.8652344,3.2089844,1.3271484,5.7294922,1.3867188,7.5605469
					c0.0605469,1.8310547-0.3886719,3.9248047-1.3486328,6.28125c-0.9599609,2.3574219-2.4482422,4.3330078-4.4667969,5.9277344
					c-2.0195312,1.5927734-4.75,2.8544922-8.1933594,3.7822266c-3.3398438,0.9013672-6.4169922,1.2138672-9.2333984,0.9375
					c-2.8173828-0.2744141-5.1630859-1.0625-7.0390625-2.3623047c-1.875-1.2988281-3.359375-2.8847656-4.453125-4.7597656
					c-1.0917969-1.8730469-2.1591797-4.7412109-3.2011719-8.6015625l-4.0830078-15.1435547
					c-1.2246094-4.5390625-1.5771484-8.2841797-1.0576172-11.2373047c0.5185547-2.9521484,1.9853516-5.5019531,4.4013672-7.6503906
					c2.4150391-2.1484375,5.4345703-3.7119141,9.0615234-4.6894531c4.4335938-1.1953125,8.3203125-1.3408203,11.65625-0.4365234
					c3.3359375,0.90625,5.9589844,2.5908203,7.8691406,5.0556641c1.9101562,2.4658203,3.5449219,6.2158203,4.9023438,11.25
					L1243.2880859,1893.5244141z M1225.1611328,1889.3466797l-1.0234375-3.7958984
					c-0.7246094-2.6865234-1.3359375-4.3828125-1.8330078-5.0878906c-0.4990234-0.7050781-1.1914062-0.9384766-2.078125-0.6992188
					c-1.0957031,0.2949219-1.6845703,0.8115234-1.765625,1.546875c-0.0820312,0.7353516,0.2714844,2.5644531,1.0595703,5.4853516
					l1.0234375,3.7958984L1225.1611328,1889.3466797z"/>
			</g>
		</g>
		<g class="st2">
			<g>
				<path class="st0" d="M1284.8359375,1872.3369141l-14.6855469,4.7675781l-1.9140625-5.8974609
					c-0.6679688-2.0566406-1.2890625-3.3964844-1.859375-4.0195312c-0.5722656-0.625-1.3066406-0.7900391-2.2070312-0.4980469
					s-1.3984375,0.8085938-1.4980469,1.5517578c-0.1015625,0.7421875,0.2128906,2.2304688,0.9375,4.4667969l7.8320312,24.1298828
					c0.59375,1.8251953,1.2695312,3.1201172,2.0273438,3.8808594c0.7597656,0.7626953,1.5878906,0.9980469,2.4882812,0.7060547
					c1.0527344-0.3417969,1.6113281-1.0488281,1.6757812-2.1210938c0.0644531-1.0712891-0.3339844-2.9316406-1.1933594-5.578125
					l-1.9765625-6.0908203l13.8769531-4.5048828c1.3007812,4.0947266,2.1484375,7.2070312,2.5410156,9.3378906
					c0.3945312,2.1298828,0.2128906,4.5058594-0.5429688,7.1210938c-0.7558594,2.6181641-2.125,4.8525391-4.109375,6.703125
					c-1.984375,1.8515625-4.6972656,3.3359375-8.140625,4.453125c-4.3945312,1.4267578-8.1210938,1.8056641-11.1796875,1.1357422
					c-3.0566406-0.6679688-5.5585938-2.1845703-7.5058594-4.5507812c-1.9472656-2.3642578-3.7285156-6.0400391-5.3476562-11.0253906
					l-4.7167969-14.5322266c-1.4101562-4.34375-2.0371094-7.7607422-1.8789062-10.2558594
					c0.1542969-2.4931641,1.3789062-5.0712891,3.6679688-7.7304688c2.2890625-2.6611328,5.4765625-4.6533203,9.5625-5.9804688
					c4.0605469-1.3173828,7.8085938-1.5830078,11.2460938-0.7958984c3.4375,0.7880859,6.0566406,2.3378906,7.859375,4.6503906
					C1281.5957031,1863.9736328,1283.2773438,1867.5322266,1284.8359375,1872.3369141z"/>
			</g>
		</g>
		<g class="st2">
			<g>
				<path class="st0" d="M1301.2089844,1844.6074219l7.4433594,19.5332031
					c3.2060547-1.2226562,4.1601562-3.5371094,2.8623047-6.9433594l-3.2451172-8.5175781
					c-1.3085938-3.4316406-1.4902344-5.6171875-0.546875-6.5537109l14.7324219-5.6142578
					c-0.5117188,2.0722656-0.15625,4.7128906,1.0654297,7.9179688l2.6689453,7.0039062
					c0.9326172,2.4472656,0.7089844,4.859375-0.6699219,7.234375c-0.5009766,0.8847656-1.7138672,2.3300781-3.6386719,4.3339844
					c-1.2363281,1.3105469-2.7910156,2.3505859-4.6650391,3.1230469c0.9404297-0.1855469,2.7529297-0.3984375,5.4365234-0.6416016
					c5.8613281-0.3251953,9.5849609,1.5927734,11.171875,5.7568359l3.3613281,8.8203125
					c1.2314453,3.2304688,2.7275391,5.4511719,4.4882812,6.6582031l-14.7314453,5.6142578
					c-1.7226562-1.1064453-3.0410156-2.8583984-3.9550781-5.2568359l-4.0390625-10.5996094
					c-1.2978516-3.40625-3.5751953-4.4882812-6.8320312-3.2480469l8.2373047,21.6152344l-15.1113281,5.7578125
					l-19.1435547-50.234375L1301.2089844,1844.6074219z"/>
			</g>
		</g>
		<g class="st2">
			<g>
				<path class="st0" d="M1387.4394531,1866.7109375l-13.0429688,5.7773438l-11.7695312-26.5683594l1.3564453,31.1816406
					l-13.6357422,6.0390625l-21.7822266-49.1699219l13.0429688-5.7773438l11.6708984,26.34375l-1.4433594-30.875
					l13.8212891-6.1230469L1387.4394531,1866.7109375z"/>
			</g>
		</g>
		<g class="st2">
			<g>
				<path class="st0" d="M1434.25,1843.1796875l-12.7070312,6.484375l-13.2089844-25.8837891l3.0644531,31.0595703
					l-13.2832031,6.7792969l-24.4453125-47.9023438l12.7070312-6.484375l13.0966797,25.6660156l-3.1337891-30.75
					l13.4648438-6.8710938L1434.25,1843.1796875z M1388.5957031,1788.3085938l6.1367188-3.1308594
					c1.5253906,3.3466797,1.9140625,6.4697266,1.1640625,9.3710938c-0.7490234,2.8994141-2.7001953,5.1533203-5.8525391,6.7617188
					c-3.1767578,1.6210938-6.1503906,1.8720703-8.9199219,0.7539062c-2.7714844-1.1191406-5.0576172-3.2666016-6.859375-6.4423828
					l6.1367188-3.1318359c1.9716797,3.1503906,4.1708984,4.1054688,6.6025391,2.8642578
					C1389.4589844,1794.1015625,1389.9892578,1791.7539062,1388.5957031,1788.3085938z"/>
			</g>
		</g>
		<g class="st2">
			<g>
				<path class="st0" d="M1447.4384766,1773.5595703l10.8291016,17.8789062
					c2.9345703-1.7783203,3.4580078-4.2265625,1.5693359-7.3447266l-4.7226562-7.7949219
					c-1.9023438-3.1425781-2.4736328-5.2587891-1.7128906-6.3505859l13.484375-8.1669922
					c-0.1308594,2.1308594,0.6923828,4.6640625,2.46875,7.5976562l3.8828125,6.4101562
					c1.3574219,2.2402344,1.5703125,4.6533203,0.640625,7.2373047c-0.3339844,0.9609375-1.2675781,2.6005859-2.8017578,4.9169922
					c-0.9804688,1.5097656-2.3232422,2.8134766-4.0292969,3.9091797c0.8925781-0.3505859,2.6376953-0.8857422,5.234375-1.6064453
					c5.7070312-1.3730469,9.7148438-0.1533203,12.0234375,3.6582031l4.890625,8.0742188
					c1.7910156,2.9570312,3.6611328,4.8710938,5.6103516,5.7421875l-13.484375,8.1679688
					c-1.8925781-0.7792969-3.5039062-2.265625-4.8339844-4.4609375l-5.8769531-9.7021484
					c-1.8886719-3.1181641-4.3222656-3.7744141-7.3037109-1.9677734l11.9833984,19.7841797l-13.8310547,8.3779297
					l-27.8515625-45.9824219L1447.4384766,1773.5595703z"/>
			</g>
		</g>
		<g class="st2">
			<g>
				<path class="st0" d="M1513.7148438,1753.015625l7.3798828,10.9101562
					c2.7109375,4.0058594,4.4960938,7.0791016,5.3574219,9.2207031c0.8613281,2.140625,1.1796875,4.46875,0.9570312,6.984375
					c-0.2226562,2.5166016-1.1074219,4.859375-2.65625,7.0322266c-1.546875,2.1728516-3.6630859,4.1669922-6.3486328,5.9833984
					c-2.9990234,2.0292969-5.7626953,3.4160156-8.2900391,4.1640625c-2.5273438,0.7490234-4.8183594,0.8466797-6.8720703,0.2949219
					c-2.0517578-0.5507812-3.9648438-1.6064453-5.7373047-3.1660156c-1.7705078-1.5566406-3.9355469-4.2265625-6.4941406-8.0097656
					l-7.7207031-11.4121094c-2.8007812-4.140625-4.5410156-7.6767578-5.2207031-10.6103516
					c-0.6796875-2.9326172-0.3320312-5.890625,1.0429688-8.875c1.3730469-2.984375,3.8730469-5.7021484,7.4980469-8.1552734
					c3.0429688-2.0585938,5.9628906-3.3730469,8.7568359-3.9433594c2.7958984-0.5693359,5.2773438-0.5273438,7.4482422,0.1240234
					c2.1699219,0.6533203,3.9951172,1.6025391,5.4765625,2.8525391
					C1509.7724609,1747.6582031,1511.5810547,1749.8613281,1513.7148438,1753.015625z M1497.8818359,1758.8320312
					c-1.5429688-2.2822266-2.6386719-3.6357422-3.2861328-4.0625c-0.6474609-0.4257812-1.3740234-0.3671875-2.1787109,0.1777344
					c-0.8066406,0.5449219-1.1425781,1.2050781-1.0097656,1.9794922s0.9707031,2.3027344,2.5136719,4.5849609l13.6035156,20.1083984
					c1.4228516,2.1035156,2.484375,3.3828125,3.1845703,3.8398438c0.7001953,0.4560547,1.4404297,0.4189453,2.2246094-0.1103516
					c0.8056641-0.5449219,1.1396484-1.1953125,1.0039062-1.953125c-0.1367188-0.7548828-0.8554688-2.0957031-2.1572266-4.0205078
					L1497.8818359,1758.8320312z"/>
			</g>
		</g>
		<g class="st2">
			<g>
				<path class="st0" d="M1562.3144531,1760.3867188l-25.6289062-33.921875l-4.6230469,3.4941406l16.3691406,21.6660156
					c2.9794922,3.9433594,4.65625,7.1054688,5.0302734,9.4814453c0.3730469,2.3759766-0.2568359,4.5107422-1.8896484,6.4052734
					c-1.6347656,1.8945312-4.671875,4.5195312-9.1113281,7.875l-2.1347656,1.6123047l-5.3027344-7.0175781
					c1.6445312-1.2744141,2.6289062-2.3466797,2.9521484-3.2197266c0.3242188-0.8701172-0.4267578-2.5136719-2.25-4.9277344
					l-23.4541016-31.0419922l30.5898438-23.1123047l32.4199219,42.9101562L1562.3144531,1760.3867188z"/>
			</g>
		</g>
		<g class="st2">
			<g>
				<path class="st0" d="M1603.1982422,1727.3886719l-27.4365234-32.4755859l-4.4267578,3.7402344l17.5234375,20.7421875
					c3.1904297,3.7763672,5.0371094,6.8408203,5.5390625,9.1943359c0.5019531,2.3525391-0.0107422,4.5185547-1.5380859,6.4990234
					c-1.5283203,1.9804688-4.4179688,4.7666016-8.6689453,8.3583984l-2.0439453,1.7265625l-5.6757812-6.71875
					c1.5722656-1.3623047,2.4960938-2.4863281,2.7724609-3.375c0.2753906-0.8867188-0.5625-2.4882812-2.515625-4.7988281
					l-25.1083984-29.7197266l29.2861328-24.7421875l34.7070312,41.0810547L1603.1982422,1727.3886719z"/>
			</g>
		</g>
		<g class="st2">
			<g>
				<path class="st0" d="M1633.3125,1665.0283203l-15.4550781,14.5048828l7.9589844,8.4804688
					c1.6640625,1.7734375,2.8642578,2.796875,3.6015625,3.0683594c0.7363281,0.2724609,1.4697266,0.0664062,2.1992188-0.6181641
					c0.90625-0.8505859,1.1914062-1.7587891,0.8603516-2.7255859c-0.3330078-0.9667969-1.4150391-2.4248047-3.2451172-4.375
					l-4.8535156-5.171875l11.3183594-10.6210938l2.7177734,2.8955078c2.2744141,2.4228516,3.8691406,4.4287109,4.7841797,6.015625
					c0.9140625,1.5869141,1.5039062,3.6455078,1.7675781,6.1767578s-0.1191406,4.9755859-1.1503906,7.3320312
					c-1.0302734,2.3574219-2.8457031,4.7558594-5.4453125,7.1953125c-2.5234375,2.3671875-5.0908203,4.0917969-7.7050781,5.1748047
					c-2.6152344,1.0839844-5.0556641,1.4941406-7.3222656,1.2294922c-2.265625-0.2617188-4.3222656-0.9619141-6.1699219-2.1015625
					c-1.8457031-1.1376953-4.1367188-3.1650391-6.8740234-6.0800781l-10.7333984-11.4375
					c-3.2167969-3.4277344-5.2919922-6.5654297-6.2236328-9.4150391c-0.9326172-2.8486328-0.8388672-5.7890625,0.2802734-8.8212891
					c1.1181641-3.0332031,3.046875-5.8339844,5.7851562-8.4042969c3.3496094-3.1425781,6.7089844-5.1005859,10.078125-5.8730469
					s6.4765625-0.5214844,9.3232422,0.7539062c2.8447266,1.2753906,6.0527344,3.8144531,9.6210938,7.6171875L1633.3125,1665.0283203
					z M1615.3535156,1669.8779297l-2.6914062-2.8662109c-1.9042969-2.0292969-3.2421875-3.2382812-4.0136719-3.625
					c-0.7714844-0.3876953-1.4921875-0.2675781-2.1611328,0.3613281c-0.8271484,0.7753906-1.1044922,1.5087891-0.8291016,2.1953125
					c0.2734375,0.6875,1.4472656,2.1347656,3.5175781,4.3398438l2.6904297,2.8671875L1615.3535156,1669.8779297z"/>
			</g>
		</g>
		<g class="st2">
			<g>
				<path class="st0" d="M1699.5839844,1648.7441406l-7.5566406,7.9150391l-7.5039062-7.1630859l-19.0292969,19.9335938
					l7.5048828,7.1640625l-7.5556641,7.9140625l-16.7978516-16.0341797l2.4072266-2.5205078
					c-0.8896484-3.7246094-3.3203125-8.4082031-7.2929688-14.0488281
					c-3.9716797-5.640625-9.2890625-11.6416016-15.9541016-18.0039062l-1.4365234-1.3710938l24.4023438-25.5625
					l29.5488281,28.2080078l2.4072266-2.5214844L1699.5839844,1648.7441406z M1669.0996094,1646.9296875l-20.7851562-19.8398438
					l-2.9375,3.078125l0.4101562,0.3916016c7.2304688,6.9033203,12.9023438,14.5576172,17.015625,22.9658203
					L1669.0996094,1646.9296875z"/>
			</g>
		</g>
		<g class="st2">
			<g>
				<path class="st0" d="M1736.7207031,1588.9042969l-10.1425781,12.1230469
					c-2.0429688-0.125-4.0488281-1.0107422-6.0175781-2.6582031l-8.6992188-7.2783203
					c-2.796875-2.3388672-5.3125-2.1728516-7.5488281,0.5009766l17.7402344,14.84375l-10.3769531,12.4013672l-17.7402344-14.8427734
					c-1.8886719,2.2578125-1.4355469,4.5566406,1.359375,6.8964844l8.6992188,7.2783203
					c2.8183594,2.3574219,4.0429688,4.1748047,3.6777344,5.4541016l-10.1171875,12.0917969
					c-0.5664062-2.0585938-2.1757812-4.1982422-4.8261719-6.4160156l-7.2402344-6.0585938
					c-3.4179688-2.859375-4.015625-7.0048828-1.7929688-12.4394531c0.6113281-1.5292969,1.40625-3.1738281,2.3808594-4.9296875
					c-0.6484375,0.6914062-2.1816406,1.7871094-4.5976562,3.2871094c-2.7246094,1.2792969-4.6367188,2.0048828-5.7324219,2.1787109
					c-2.4179688,0.4072266-4.6425781-0.2373047-6.671875-1.9365234l-5.5625-4.6533203
					c-2.6308594-2.2001953-5.0097656-3.3994141-7.1367188-3.5927734l10.1171875-12.0908203
					c2.0605469,0.1044922,4.0761719,0.9794922,6.0429688,2.625l6.9902344,5.8486328
					c2.796875,2.3398438,5.1132812,2.4121094,6.9511719,0.2148438l-16.03125-13.4130859l10.3769531-12.4013672l16.03125,13.4121094
					c2.2011719-2.6308594,1.9042969-5.1171875-0.890625-7.4570312l-6.9902344-5.8476562
					c-2.8183594-2.3574219-4.0429688-4.1748047-3.6777344-5.4541016L1695.4375,1554.46875
					c0.5488281,2.0791016,2.1386719,4.2207031,4.7695312,6.4208984l5.5625,4.6533203
					c2.0292969,1.6992188,3.0664062,3.7636719,3.109375,6.1953125c0.0214844,1.1103516-0.3574219,3.1201172-1.1347656,6.0263672
					c-0.4785156,1.7490234-1.2851562,3.4521484-2.4238281,5.1064453c0.7148438-0.6005859,2.1933594-1.671875,4.4335938-3.2148438
					c4.9550781-3.1445312,9.1425781-3.2871094,12.5605469-0.4277344l7.2382812,6.0566406
					C1732.2050781,1587.5039062,1734.59375,1588.7109375,1736.7207031,1588.9042969z"/>
			</g>
		</g>
		<g>
			<g>
				<g>
					<path class="st0" d="M1800.5,1450.5c-0.0596924-0.4484863,3.414917-0.9591064,8-3c3.0993652-1.3796387,5.4638672-2.9055176,7-4
						c0.7858887,0.0661621,1.7966309,0.1286621,2.9729004,0.1538086c3.8635254-2.7600098,8.1547852-6.4328613,12.0270996-11.1538086
						c5.2053223-6.3460693,13.909668-16.9577637,11-28c-0.1772461-0.6724854-3.1147461-11.2318115-11-12
						c-4.439209-0.4324951-9.0253906,2.3769531-12,7c1.0744629,0.6251221,2.5162354,1.5861816,4,3
						c3.8980713,3.7143555,5.3231201,7.9215088,6,10c0.8826904,2.7102051,2.4494629,7.5211182,1,13
						c-1.7995605,6.8023682-7.1809082,10.5996094-12,14c-4.6947021,3.3126221-9.1152344,5.0633545-12,6
						c-0.3109131-2.1379395-0.7091064-5.2399902-1-9c-1.1621094-15.0200195,1.1838379-17.3276367,2-18
						c1.6320801-1.3446045,4.2647705-2.0151367,6-1c2.3737793,1.3886719,2.0535889,5.338623,2,6
						c-0.3171387,3.9127197-3.1981201,6.3624268-4,7c3.9732666,0.9227295,8.0235596-0.7269287,10-4
						c1.6730957-2.7706299,1.6676025-6.3857422,0-9c-2.208374-3.4621582-6.4573975-3.798584-9-4
						c-7.9157715-0.6268311-13.5400391,4.5620117-14,5c-3.6960449,3.5194092-4.7141113,7.5709229-6,13
						c-1.1192627,4.7255859-2.2858887,12.3244629-1,22c-1.5653076,0.7796631-5.6872559,3.097168-8,8
						c-0.8676758,1.8394775-2.9268799,6.2047119-1,10c2.717041,5.3518066,11.0576172,5.0357666,12,5
						c0.7642822-0.0289307,8.4763184-0.451416,13-7c3.7338867-5.4052734,3.7773438-12.7939453,0.12854-18.7785645
						C1801.7310791,1450.9506836,1800.5343018,1450.7573242,1800.5,1450.5z M1792.5,1466.5
						c-0.7145996,1.2637939-2.4468994,3.3878174-4,3c-1.5418701-0.3850098-2.2523193-3.0817871-2-5
						c0.3521729-2.677002,2.7254639-4.944458,6-6C1792.8597412,1459.3461914,1794.3817139,1463.1719971,1792.5,1466.5z"/>
				</g>
			</g>
			<g>
				<g>
					<path class="st0" d="M1853.5,1430.5c-0.5131836-2.5159912-2.8477783-4.3271484-5-5c-3.126709-0.9775391-6.7064209,0.185791-9,3
						c0.8927002,0.086792,3.2077637,0.4238281,4,2c1.272583,2.5317383-2.3563232,6.3267822-3,7
						c-4.7590332,4.9769287-11.9196777,5.5754395-17,6c-1.8930664,0.1582031-3.5866699,0.1845703-5.0270996,0.1538086
						c-4.9417725,3.5302734-9.1833496,5.5661621-10.9488525,6.3831787
						c-0.4244385,0.1964111-0.7791748,0.3548584-1.0240479,0.4630127c0.0456543,0.0727539,0.0839844,0.1481934,0.12854,0.2214355
						c1.0966797-0.0515137,2.3746338-0.1235352,3.87146-0.2214355c9.3449707-0.0635986,16.8439941-1.5847168,22-3
						c8.0368652-2.2061768,12.494751-4.7354736,16-8C1850.7685547,1437.387207,1854.2443848,1434.1500244,1853.5,1430.5z"/>
				</g>
			</g>
			<g>
				<g>
					<path class="st0" d="M1807.5240479,1450.0369873c1.7655029-0.8170166,6.0070801-2.8529053,10.9488525-6.3831787
						c-1.1762695-0.0251465-2.1870117-0.0876465-2.9729004-0.1538086c-1.5361328,1.0944824-3.9006348,2.6203613-7,4
						c-4.585083,2.0408936-8.0596924,2.5515137-8,3c0.0343018,0.2573242,1.2310791,0.4506836,6.12854,0.2214355
						c-0.0445557-0.0732422-0.0828857-0.1486816-0.12854-0.2214355
						C1806.744873,1450.3918457,1807.0996094,1450.2333984,1807.5240479,1450.0369873z"/>
				</g>
			</g>
			<g>
				<g>
					<path class="st1" d="M1786.5,1464.5c-0.2523193,1.9182129,0.4581299,4.6149902,2,5
						c1.5531006,0.3878174,3.2854004-1.7362061,4-3c1.8817139-3.3280029,0.3597412-7.1538086,0-8
						C1789.2254639,1459.555542,1786.8521729,1461.822998,1786.5,1464.5z"/>
				</g>
			</g>
		</g>
		<g>
			<g>
				<g>
					<path class="st0" d="M196.7371063,1459.7625732c0.0595856-0.4484863-3.408905-0.9591064-7.9859161-3
						c-3.0939026-1.3796387-5.4542542-2.9055176-6.9876862-4c-0.7845154,0.0661621-1.7934723,0.1286621-2.9676666,0.1538086
						c-3.85672-2.7600098-8.1404266-6.4328613-12.0059357-11.1538086c-5.196167-6.3460693-13.8851776-16.9577637-10.9806366-28
						c0.1769257-0.6724854,3.1092529-11.2318115,10.9806366-12c4.4313965-0.4324951,9.0095062,2.3769531,11.9788666,7
						c-1.0725708,0.6251221-2.5118103,1.5861816-3.9929657,3c-3.8912048,3.7143555-5.3137512,7.9215088-5.9894409,10
						c-0.881134,2.7102051-2.4451447,7.5211182-0.9982452,13c1.7963867,6.8023682,7.1682739,10.5996094,11.9788666,14
						c4.6864471,3.3126221,9.0991974,5.0633545,11.9788666,6c0.3103638-2.1379395,0.7078552-5.2399902,0.9982452-9
						c1.1600647-15.0200195-1.1817474-17.3276367-1.9964752-18c-1.6292114-1.3446045-4.2572632-2.0151367-5.9894409-1
						c-2.3695984,1.3886719-2.0499725,5.338623-1.9964752,6c0.3165741,3.9127197,3.1924896,6.3624268,3.9929657,7
						c-3.9662628,0.9227295-8.0094299-0.7269287-9.9823914-4c-1.6701508-2.7706299-1.6646729-6.3857422,0-9
						c2.204483-3.4621582,6.4460297-3.798584,8.9841461-4c7.9018402-0.6268311,13.5162048,4.5620117,13.9753571,5
						c3.6895447,3.5194092,4.7058105,7.5709229,5.9894409,13c1.1172943,4.7255859,2.2818604,12.3244629,0.9982452,22
						c1.5625458,0.7796631,5.6772461,3.097168,7.9859161,8c0.8661499,1.8394775,2.9217224,6.2047119,0.9982452,10
						c-2.712265,5.3518066-11.038147,5.0357666-11.9788666,5c-0.7629395-0.0289307-8.4613953-0.451416-12.9771118-7
						c-3.7273102-5.4052734-3.7706909-12.7939453-0.1283112-18.7785645c4.8888397,0.229248,6.0835114,0.0358887,6.1177521-0.2214355
						H196.7371063z M204.7230225,1475.7625732c0.7133331,1.2637939,2.4425964,3.3878174,3.9929657,3
						c1.5391541-0.3850098,2.2483521-3.0817871,1.9964752-5c-0.3515472-2.677002-2.7206726-4.944458-5.9894409-6
						C204.3639069,1468.6087646,202.8446198,1472.4345703,204.7230225,1475.7625732z"/>
				</g>
			</g>
			<g>
				<g>
					<path class="st0" d="M143.8304138,1439.7625732c0.5122833-2.5159912,2.8427582-4.3271484,4.9911957-5
						c3.1212006-0.9775391,6.6946106,0.185791,8.9841461,3c-0.8911285,0.086792-3.2021179,0.4238281-3.9929657,2
						c-1.27034,2.5317383,2.3521729,6.3267822,2.9947205,7c4.7506561,4.9769287,11.8986969,5.5754395,16.9700775,6
						c1.8897247,0.1582031,3.5803528,0.1845703,5.0182495,0.1538086c4.933075,3.5302734,9.1671753,5.5661621,10.9295807,6.3831787
						c0.4236908,0.1964111,0.7778015,0.3548584,1.0222473,0.4630127c-0.0455627,0.0727539-0.083847,0.1481934-0.1283112,0.2214355
						c-1.0947571-0.0515137-2.3704529-0.1235352-3.8646393-0.2214355c-9.3285217-0.0635986-16.8143463-1.5847168-21.9612732-3
						c-8.0227203-2.2061768-12.4727478-4.7354736-15.9718323-8
						C146.5570526,1446.6497803,143.0873413,1443.4125977,143.8304138,1439.7625732z"/>
				</g>
			</g>
			<g>
				<g>
					<path class="st0" d="M189.7254333,1459.2995605c-1.7623901-0.8170166-5.9965057-2.8529053-10.9295807-6.3831787
						c1.1741943-0.0251465,2.1831665-0.0876465,2.9676666-0.1538086c1.533432,1.0944824,3.8937683,2.6203613,6.9876862,4
						c4.5770111,2.0408936,8.0455017,2.5515137,7.9859161,3c-0.0342407,0.2573242-1.2289124,0.4506836-6.1177521,0.2214355
						c0.0444794-0.0732422,0.0827332-0.1486816,0.1283112-0.2214355
						C190.5032349,1459.6544189,190.1491241,1459.4959717,189.7254333,1459.2995605z"/>
				</g>
			</g>
			<g>
				<g>
					<path class="st1" d="M210.7124634,1473.7625732c0.2518768,1.9182129-0.4573212,4.6149902-1.9964752,5
						c-1.5503693,0.3878174-3.2796173-1.7362061-3.9929657-3c-1.8784027-3.3280029-0.3591156-7.1538086,0-8
						C207.9917908,1468.8181152,210.3609009,1471.0855713,210.7124634,1473.7625732z"/>
				</g>
			</g>
		</g>
		<g>
			<g>
				<g>
					<path class="st0" d="M1799.7785645,529.8859863c-0.0596924,0.4498901,3.414917,0.9620361,8,3.0092163
						c3.0993652,1.3838501,5.4638672,2.9144287,7,4.0122681c0.7858887-0.0663452,1.7966309-0.1290894,2.9729004-0.1542969
						c3.8635254,2.7684937,8.1547852,6.4525757,12.0270996,11.1880493c5.2053223,6.3655396,13.909668,17.0097656,11,28.0858765
						c-0.1772461,0.6745605-3.1147461,11.2662964-11,12.0368042c-4.439209,0.4338379-9.0253906-2.3842163-12-7.0214844
						c1.0744629-0.6270142,2.5162354-1.5910645,4-3.0092163c3.8980713-3.725769,5.3231201-7.9458008,6-10.0307007
						c0.8826904-2.7185059,2.4494629-7.5441895,1-13.039856c-1.7995605-6.8232422-7.1809082-10.6321411-12-14.0429688
						c-4.6947021-3.3227539-9.1152344-5.0789185-12-6.0184326c-0.3109131,2.1444702-0.7091064,5.2560425-1,9.0275879
						c-1.1621094,15.0661011,1.1838379,17.3807983,2,18.0552368c1.6320801,1.3487549,4.2647705,2.0213013,6,1.0030518
						c2.3737793-1.3929443,2.0535889-5.3549805,2-6.0184326c-0.3171387-3.9247437-3.1981201-6.381958-4-7.0214844
						c3.9732666-0.9255371,8.0235596,0.729187,10,4.0122681c1.6730957,2.7791138,1.6676025,6.4053345,0,9.0275879
						c-2.208374,3.4727783-6.4573975,3.8102417-9,4.0122681c-7.9157715,0.6287231-13.5400391-4.5759888-14-5.0153198
						c-3.6960449-3.5302124-4.7141113-7.5941772-6-13.039856c-1.1192627-4.7400513-2.2858887-12.3622437-1-22.0675049
						c-1.5653076-0.7820435-5.6872559-3.1066895-8-8.0245361c-0.8676758-1.8450928-2.9268799-6.2237549-1-10.0306702
						c2.717041-5.3682251,11.0576172-5.0512085,12-5.0153503c0.7642822,0.0290222,8.4763184,0.4527893,13,7.0214844
						c3.7338867,5.421875,3.7773438,12.8331909,0.12854,18.8361816c-4.8974609-0.2299805-6.0942383-0.0360107-6.12854,0.2221069
						V529.8859863z M1791.7785645,513.8369141c-0.7145996-1.2677002-2.4468994-3.3982239-4-3.0091858
						c-1.5418701,0.3862-2.2523193,3.091217-2,5.0153503c0.3521729,2.6851807,2.7254639,4.9596558,6,6.0184326
						c0.3597412-0.8488159,1.8817139-4.6863403,0-8.0245361V513.8369141z"/>
				</g>
			</g>
			<g>
				<g>
					<path class="st0" d="M1852.7785645,549.9473267c-0.5131836,2.5236816-2.8477783,4.3403931-5,5.0153198
						c-3.126709,0.9805298-6.7064209-0.1863403-9-3.0092163c0.8927002-0.0870361,3.2077637-0.4251099,4-2.0061646
						c1.272583-2.5394897-2.3563232-6.3461914-3-7.0214844c-4.7590332-4.9921875-11.9196777-5.5925293-17-6.0184326
						c-1.8930664-0.1586914-3.5866699-0.1851196-5.0270996-0.1542969c-4.9417725-3.5410767-9.1833496-5.583252-10.9488525-6.402771
						c-0.4244385-0.1970215-0.7791748-0.355957-1.0240479-0.4644165c0.0456543-0.072998,0.0839844-0.1486206,0.12854-0.2221069
						c1.0966797,0.0516968,2.3746338,0.1239014,3.87146,0.2221069c9.3449707,0.0637817,16.8439941,1.5895996,22,3.0092163
						c8.0368652,2.2129517,12.494751,4.75,16,8.0245361c2.2685547,2.1192627,5.7443848,5.366394,5,9.0275879V549.9473267z"/>
				</g>
			</g>
			<g>
				<g>
					<path class="st0" d="M1806.8026123,530.3504028c1.7655029,0.819519,6.0070801,2.8616333,10.9488525,6.402771
						c-1.1762695,0.0252075-2.1870117,0.0878906-2.9729004,0.1542969c-1.5361328-1.0978394-3.9006348-2.628418-7-4.0122681
						c-4.585083-2.0471802-8.0596924-2.5593262-8-3.0092163c0.0343018-0.2581177,1.2310791-0.4520874,6.12854-0.2221069
						c-0.0445557,0.0734863-0.0828857,0.1491699-0.12854,0.2221069
						C1806.0234375,529.9945068,1806.3781738,530.1533813,1806.8026123,530.3504028z"/>
				</g>
			</g>
			<g>
				<g>
					<path class="st1" d="M1785.7785645,515.8430176c-0.2523193-1.9240723,0.4581299-4.6291504,2-5.0153503
						c1.5531006-0.3890076,3.2854004,1.7415466,4,3.0091858c1.8817139,3.3381958,0.3597412,7.1757202,0,8.0245361
						c-3.2745361-1.0587769-5.6478271-3.3331909-6-6.0184326V515.8430176z"/>
				</g>
			</g>
		</g>
		<g>
			<g>
				<g>
					<path class="st0" d="M196.015686,520.5949707c0.0595856,0.4498901-3.408905,0.9620361-7.9859161,3.0092163
						c-3.0939026,1.3838501-5.4542542,2.9144287-6.9876862,4.0122681c-0.7845154-0.0663452-1.7934723-0.1290894-2.9676666-0.1542969
						c-3.85672,2.7684937-8.1404266,6.4525757-12.0059357,11.1880493
						c-5.196167,6.3655396-13.8851776,17.0097656-10.9806366,28.0858765
						c0.1769257,0.6745605,3.1092529,11.2662964,10.9806366,12.0368042
						c4.4313965,0.4338379,9.0095062-2.3842163,11.9788666-7.0214844c-1.0725708-0.6270142-2.5118103-1.5910645-3.9929657-3.0092163
						c-3.8912048-3.725769-5.3137512-7.9458008-5.9894409-10.0307007c-0.881134-2.7185059-2.4451447-7.5441895-0.9982452-13.039856
						c1.7963867-6.8232422,7.1682739-10.6321411,11.9788666-14.0429688
						c4.6864471-3.3227539,9.0991821-5.0789185,11.9788666-6.0184326c0.3103638,2.1444702,0.7078552,5.2560425,0.9982452,9.0275879
						c1.1600647,15.0661011-1.1817474,17.3807983-1.9964752,18.0552368
						c-1.6292114,1.3487549-4.2572632,2.0213013-5.9894409,1.0030518c-2.3695984-1.3929443-2.0499725-5.3549805-1.9964752-6.0184326
						c0.3165741-3.9247437,3.1924896-6.381958,3.9929657-7.0214844c-3.9662628-0.9255371-8.0094299,0.729187-9.9823914,4.0122681
						c-1.6701508,2.7791138-1.6646729,6.4053345,0,9.0275879c2.204483,3.4727783,6.4460297,3.8102417,8.9841461,4.0122681
						c7.9018402,0.6287231,13.5162048-4.5759888,13.9753571-5.0153198c3.6895447-3.5302124,4.7058105-7.5941772,5.9894409-13.039856
						c1.1172943-4.7400513,2.2818604-12.3622437,0.9982452-22.0675049c1.5625458-0.7820435,5.6772461-3.1066895,7.9859161-8.0245361
						c0.8661499-1.8451233,2.9217377-6.2237549,0.9982452-10.0306702c-2.712265-5.3682251-11.038147-5.0512085-11.9788666-5.0153503
						c-0.7629395,0.0290222-8.4613953,0.4527893-12.9771118,7.0214844
						c-3.7273102,5.4218445-3.7706909,12.8331909-0.1283112,18.8361816
						c4.8888397-0.2299805,6.0835114-0.0360107,6.1177521,0.2221069L196.015686,520.5949707z M204.0016022,504.5458984
						c0.7133331-1.2676697,2.4425964-3.3982239,3.9929657-3.0091858c1.5391541,0.3862,2.2483521,3.0912476,1.9964752,5.0153503
						c-0.3515472,2.6852112-2.7206726,4.9596252-5.9894409,6.0184326c-0.3591156-0.8487854-1.8784027-4.6863403,0-8.0245361
						V504.5458984z"/>
				</g>
			</g>
			<g>
				<g>
					<path class="st0" d="M143.1089935,540.656311c0.5122833,2.5236816,2.8427582,4.3403931,4.9911957,5.0153198
						c3.1212006,0.9805298,6.6946106-0.1863403,8.9841461-3.0092163c-0.8911285-0.0870361-3.2021179-0.4251099-3.9929657-2.0061646
						c-1.27034-2.5394897,2.3521729-6.3461914,2.9947205-7.0214844c4.7506561-4.9921875,11.8986969-5.5925293,16.9700623-6.0184326
						c1.8897247-0.1586914,3.5803528-0.1851196,5.0182495-0.1542969c4.933075-3.5410767,9.1671753-5.583252,10.9295807-6.402771
						c0.4236908-0.1970215,0.7778015-0.355957,1.0222473-0.4644165c-0.0455627-0.072998-0.083847-0.1486206-0.1283112-0.2221069
						c-1.0947571,0.0516968-2.3704529,0.1239014-3.8646393,0.2221069
						c-9.3285217,0.0637817-16.8143463,1.5895996-21.9612732,3.0092163c-8.0227203,2.2129517-12.4727478,4.75-15.9718323,8.0245361
						c-2.2645569,2.1192627-5.7342682,5.366394-4.9911957,9.0275879L143.1089935,540.656311z"/>
				</g>
			</g>
			<g>
				<g>
					<path class="st0" d="M189.0040131,521.0594482c-1.7623901,0.819519-5.9965057,2.8616333-10.9295807,6.402771
						c1.1741943,0.0252075,2.1831665,0.0878906,2.9676666,0.1542969c1.533432-1.0978394,3.8937683-2.628418,6.9876862-4.0122681
						c4.5770111-2.0471802,8.0455017-2.5593262,7.9859161-3.0092163c-0.0342407-0.2581177-1.2289124-0.4520874-6.1177521-0.2221069
						c0.0444794,0.0734863,0.0827332,0.1491699,0.1283112,0.2221069
						C189.7818146,520.7035522,189.4277039,520.8624268,189.0040131,521.0594482z"/>
				</g>
			</g>
			<g>
				<g>
					<path class="st1" d="M209.9910431,506.5520325c0.2518768-1.9241028-0.4573212-4.6291504-1.9964752-5.0153503
						c-1.5503693-0.3890076-3.2796173,1.7415161-3.9929657,3.0091858c-1.8784027,3.3381958-0.3591156,7.1757507,0,8.0245667
						C207.2703705,511.5116577,209.6394806,509.2372437,209.9910431,506.5520325z"/>
				</g>
			</g>
		</g>
	</g>
</g>
</svg>
